<?xml version="1.0" standalone="no"?>
<!DOCTYPE svg PUBLIC "-//W3C//DTD SVG 20010904//EN"
 "http://www.w3.org/TR/2001/REC-SVG-20010904/DTD/svg10.dtd">
<svg version="1.0" xmlns="http://www.w3.org/2000/svg"
 width="368.000000pt" height="184.000000pt" viewBox="0 0 368.000000 184.000000"
 preserveAspectRatio="xMidYMid meet">

<g transform="translate(0.000000,184.000000) scale(0.100000,-0.100000)"
fill="#000000" stroke="none">
<path d="M369 1456 c-84 -32 -162 -107 -184 -177 -4 -12 -26 -45 -49 -73 -61
-75 -88 -146 -94 -242 -7 -124 35 -241 113 -314 18 -17 25 -34 25 -62 0 -37 3
-40 48 -60 26 -11 63 -24 82 -27 32 -6 37 -11 52 -61 10 -29 23 -57 30 -62 15
-9 169 -11 192 -2 9 3 16 14 16 25 0 10 9 23 21 30 18 9 20 17 15 52 -10 72
11 84 117 71 47 -6 47 -6 62 30 16 38 13 70 -12 118 -12 25 -11 35 8 90 16 46
22 86 22 148 0 103 -24 175 -81 252 -23 30 -42 69 -45 91 -9 55 -49 119 -98
153 -37 25 -52 29 -123 31 -50 2 -95 -3 -117 -11z m189 -22 c36 -15 92 -60 92
-75 0 -4 -10 -10 -22 -14 -22 -8 -22 -8 5 -12 44 -7 60 -42 59 -133 -2 -137
-42 -220 -124 -254 -65 -27 -108 -16 -164 39 -52 52 -60 43 -9 -11 19 -20 35
-38 35 -40 0 -9 -83 -3 -102 7 -26 14 -61 94 -54 123 5 20 2 22 -23 18 -25 -3
-32 1 -46 28 -22 42 -13 78 22 86 21 6 30 2 41 -14 28 -43 37 -26 39 75 2 90
4 98 29 124 15 16 24 29 20 29 -13 0 -47 -21 -67 -41 -20 -20 -39 -25 -39 -11
0 23 106 80 112 60 2 -6 18 -2 38 11 42 25 105 27 158 5z m-261 -106 c-2 -7
-11 -12 -19 -10 -21 3 -56 -38 -61 -73 -3 -24 -4 -21 -6 13 -1 38 2 44 32 62
36 23 61 26 54 8z m93 -429 c0 -10 -12 -11 -34 -3 -25 10 -19 22 9 16 14 -2
25 -8 25 -13z m170 11 c0 -5 -12 -10 -27 -9 l-28 1 25 8 c14 4 26 8 28 9 1 1
2 -3 2 -9z m14 -76 c11 -4 16 -19 16 -44 0 -71 -10 -76 -41 -20 -35 64 -27 84
25 64z m68 -20 c5 -4 -29 -65 -45 -80 -1 -1 0 18 2 42 2 34 7 44 20 44 10 0
20 -3 23 -6z m-111 -52 c21 -48 15 -50 -42 -21 l-41 20 23 25 c29 31 39 27 60
-24z m274 -123 c5 -29 3 -45 -6 -54 -20 -18 -59 -29 -59 -16 0 6 -11 11 -24
11 -18 0 -25 7 -30 31 -12 60 -8 69 37 89 41 18 42 18 59 -1 9 -10 19 -38 23
-60z m-245 24 c3 -2 6 -38 8 -79 4 -63 6 -73 18 -63 19 16 26 7 28 -37 1 -41
-20 -58 -27 -22 -2 13 -5 5 -6 -19 0 -23 -5 -44 -10 -47 -14 -9 -112 -10 -149
-2 -27 6 -33 14 -43 49 -15 56 -38 211 -32 217 15 16 197 19 213 3z m110 -55
c0 -66 -27 -43 -30 27 -3 47 0 51 15 31 8 -11 15 -37 15 -58z"/>
<path d="M400 1320 c-28 -28 -25 -48 3 -22 13 12 31 22 40 22 9 0 17 5 17 10
0 17 -39 11 -60 -10z"/>
<path d="M665 1243 c5 -17 2 -23 -9 -23 -9 0 -16 -4 -16 -10 0 -15 30 -12 36
4 3 8 1 23 -6 33 -10 16 -10 15 -5 -4z"/>
<path d="M495 1233 c5 -20 3 -23 -19 -23 -14 0 -26 -4 -26 -10 0 -13 57 -13
65 0 3 5 -1 20 -10 32 l-17 23 7 -22z"/>
<path d="M576 1230 c3 -14 18 -41 33 -60 33 -42 31 -55 -15 -70 -28 -9 -38 -9
-51 2 -14 11 -16 11 -11 -2 10 -33 98 -17 118 21 8 13 2 26 -23 57 -17 22 -38
48 -45 58 -11 17 -12 17 -6 -6z"/>
<path d="M223 1153 c0 -22 1 -23 9 -9 8 13 13 15 24 5 17 -14 19 2 2 19 -20
20 -35 14 -35 -15z"/>
<path d="M628 1074 c-30 -15 -37 -34 -15 -34 15 0 53 37 46 44 -2 2 -16 -2
-31 -10z"/>
<path d="M504 1056 c22 -18 86 -22 86 -6 0 6 -8 10 -19 10 -10 0 -34 3 -52 6
-32 5 -33 5 -15 -10z"/>
<path d="M493 1015 c28 -25 70 -32 95 -16 9 5 -4 10 -37 15 -27 4 -53 11 -56
16 -3 6 -12 10 -18 10 -7 0 1 -12 16 -25z"/>
<path d="M2313 1163 c-59 -4 -67 -15 -25 -35 l27 -13 3 -198 2 -197 -25 -10
c-50 -19 -26 -30 69 -30 98 0 126 11 81 32 -23 10 -26 17 -23 57 2 24 8 46 15
48 6 2 31 -28 55 -66 l43 -71 173 0 c146 0 172 2 172 15 0 8 -7 15 -15 15 -26
0 -32 32 -33 159 -1 68 -3 125 -5 127 -7 7 -147 -10 -147 -18 0 -5 11 -13 25
-18 25 -9 25 -11 25 -125 0 -114 0 -116 -25 -125 -40 -15 -66 4 -130 97 l-58
87 33 28 c19 15 49 33 67 39 56 18 37 29 -49 29 l-83 0 25 -20 25 -19 -50 -51
c-27 -27 -53 -50 -57 -50 -4 0 -8 72 -8 160 l0 160 -27 -2 c-16 -1 -52 -3 -80
-5z"/>
<path d="M2742 1154 c-52 -36 -4 -122 54 -96 13 7 30 24 36 38 11 24 10 29
-15 50 -33 28 -45 29 -75 8z"/>
<path d="M1200 1115 c0 -8 8 -15 18 -15 38 0 42 -19 42 -177 0 -176 -9 -207
-61 -218 -43 -10 -57 7 -30 36 23 25 28 68 9 87 -7 7 -27 12 -45 12 -29 0 -36
-5 -47 -32 -46 -109 101 -179 222 -106 55 34 62 59 62 226 0 154 5 172 43 172
10 0 17 5 15 13 -3 8 -38 13 -116 15 -95 2 -112 1 -112 -13z"/>
<path d="M1556 977 c-22 -12 -49 -38 -60 -57 -25 -43 -26 -125 -1 -167 37 -62
125 -94 203 -74 61 17 132 91 87 91 -8 0 -15 -4 -15 -10 0 -14 -55 -40 -84
-40 -59 0 -96 39 -96 100 l0 29 103 3 102 3 -3 35 c-2 19 -8 43 -14 53 -30 58
-149 76 -222 34z m106 -9 c9 -7 20 -30 23 -50 l7 -38 -51 0 c-50 0 -51 1 -51
30 0 28 29 70 48 70 5 0 16 -6 24 -12z"/>
<path d="M1883 993 c-57 -4 -68 -18 -29 -33 24 -9 25 -13 28 -115 3 -109 -2
-135 -27 -135 -8 0 -15 -7 -15 -15 0 -12 16 -15 88 -15 49 0 92 3 96 7 4 4 -3
15 -15 23 -17 13 -22 30 -26 81 -8 114 11 159 67 159 41 0 50 -24 50 -135 0
-88 -2 -97 -20 -102 -11 -3 -20 -12 -20 -19 0 -11 21 -14 95 -14 52 0 95 4 95
9 0 5 -11 16 -25 25 -24 16 -25 20 -25 122 0 104 0 106 -30 136 -28 28 -35 30
-81 26 -33 -4 -58 -13 -74 -28 l-23 -22 -4 24 c-3 25 -14 28 -105 21z"/>
<path d="M2958 993 c-54 -5 -59 -13 -23 -37 24 -16 25 -20 25 -126 0 -109 0
-111 -26 -120 -46 -18 -14 -30 77 -30 71 0 89 3 89 14 0 8 -9 18 -20 21 -18 6
-20 15 -20 105 0 91 2 100 22 114 12 9 35 16 49 16 35 0 49 -38 49 -136 0 -81
-6 -104 -26 -104 -8 0 -14 -7 -14 -15 0 -12 17 -15 90 -15 71 0 90 3 90 14 0
8 -9 18 -20 21 -18 6 -20 15 -20 106 0 141 -23 179 -107 179 -24 0 -52 -9 -75
-25 l-37 -25 -3 23 c-3 24 -17 27 -100 20z"/>
<path d="M3425 985 c-41 -22 -55 -43 -55 -83 0 -44 42 -86 101 -102 50 -13 79
-35 79 -60 0 -49 -72 -55 -124 -9 -19 16 -38 39 -41 50 -12 38 -25 18 -25 -41
0 -47 3 -60 15 -60 8 0 15 4 15 9 0 5 23 2 52 -6 42 -13 61 -13 104 -4 64 15
94 46 94 100 0 49 -37 84 -111 105 -31 9 -60 23 -63 32 -11 30 -6 44 19 54 35
13 91 -11 107 -44 12 -28 44 -37 34 -10 -3 9 -6 30 -6 47 l0 32 -83 3 c-59 2
-90 -2 -112 -13z"/>
</g>
</svg>
