<?xml version="1.0" standalone="no"?>
<!DOCTYPE svg PUBLIC "-//W3C//DTD SVG 20010904//EN"
 "http://www.w3.org/TR/2001/REC-SVG-20010904/DTD/svg10.dtd">
<svg version="1.0" xmlns="http://www.w3.org/2000/svg"
 width="7500.000000pt" height="5000.000000pt" viewBox="0 0 7500.000000 5000.000000"
 preserveAspectRatio="xMidYMid meet">

<g transform="translate(0.000000,5000.000000) scale(0.100000,-0.100000)"
fill="#000000" stroke="none">
<path d="M30519 42123 c-196 -270 -502 -388 -849 -326 -68 12 -152 17 -295 17
-224 0 -317 -14 -514 -80 -154 -51 -411 -185 -411 -214 0 -24 32 -20 74 10
101 69 303 158 456 200 190 52 446 66 630 33 140 -24 361 -22 465 6 109 29
246 99 331 170 74 61 174 184 174 213 0 36 -21 26 -61 -29z"/>
<path d="M26790 41830 c-83 -85 -167 -135 -281 -166 -92 -25 -249 -23 -363 5
-298 72 -592 38 -868 -100 -43 -22 -78 -43 -78 -47 0 -21 16 -18 73 13 34 18
108 49 165 69 237 82 459 93 698 35 128 -31 292 -31 394 0 109 33 195 85 278
167 62 62 90 106 65 103 -5 0 -42 -36 -83 -79z"/>
<path d="M32441 41850 c-60 -9 -92 -23 -79 -35 3 -3 56 -1 117 6 259 27 543
-41 763 -182 198 -127 303 -164 468 -163 84 1 121 6 185 27 82 27 175 78 175
97 0 16 -11 12 -80 -24 -99 -53 -170 -70 -285 -70 -147 0 -279 45 -429 147
-128 86 -287 151 -449 182 -101 19 -300 27 -386 15z"/>
<path d="M33071 41354 c-48 -89 -158 -162 -276 -183 -33 -5 -112 -10 -175 -10
-139 0 -237 -22 -355 -81 -86 -43 -175 -104 -175 -120 0 -18 21 -11 59 19 56
45 158 97 246 127 70 23 102 28 260 34 145 6 190 11 232 27 94 37 174 107 217
190 19 38 20 43 3 43 -6 0 -23 -21 -36 -46z"/>
<path d="M47163 41359 c-229 -22 -297 -68 -374 -254 -43 -105 -90 -155 -148
-155 -22 0 -75 12 -118 27 -68 24 -94 27 -203 28 -120 0 -128 -1 -192 -32 -84
-40 -151 -106 -189 -188 -128 -272 75 -633 462 -823 l116 -57 7 -140 c7 -131
34 -322 55 -390 l9 -30 2 28 c2 15 3 30 5 35 1 4 5 25 9 47 9 48 53 202 66
230 5 11 19 45 30 75 32 88 25 84 133 71 129 -15 261 -14 387 4 152 22 448 31
537 16 40 -7 103 -27 140 -46 68 -32 96 -56 206 -173 36 -38 81 -73 119 -92
35 -17 63 -38 65 -48 2 -9 5 -28 7 -42 3 -14 7 -38 9 -55 9 -54 18 -109 22
-143 2 -18 6 -49 9 -70 17 -128 23 -334 11 -402 -23 -138 -61 -175 -240 -239
-30 -10 -179 -48 -225 -56 -14 -3 -36 -7 -50 -10 -14 -3 -41 -8 -60 -11 -19
-2 -55 -9 -80 -14 -25 -5 -70 -12 -100 -15 -30 -2 -80 -7 -110 -10 -122 -14
-433 -20 -530 -11 -67 6 -136 17 -199 30 l-63 13 6 -59 c11 -92 52 -223 101
-317 181 -349 535 -542 948 -517 172 11 338 46 462 96 203 83 293 138 401 245
76 75 98 106 138 185 46 92 48 97 42 160 -3 36 -8 74 -10 85 -3 11 -12 54 -21
95 -9 41 -25 104 -36 139 -10 35 -21 76 -24 90 -2 14 -13 53 -24 86 -10 33
-22 74 -25 90 -4 17 -9 41 -11 55 -18 87 5 282 41 353 42 82 82 124 141 145
165 61 320 -29 329 -192 2 -51 -2 -71 -27 -123 -28 -59 -88 -121 -130 -135
-13 -5 -14 -16 -9 -56 9 -69 3 -155 -14 -213 -8 -27 -13 -49 -11 -49 2 0 -7
-25 -21 -56 -14 -31 -22 -59 -19 -62 3 -3 36 4 73 16 208 67 426 274 605 574
136 228 248 503 287 704 25 131 27 330 4 442 -91 446 -527 766 -1148 843 -69
8 -159 10 -295 4 -356 -13 -385 -8 -660 124 -102 49 -223 100 -269 115 -74 23
-107 29 -232 40 -19 2 -72 -1 -117 -5z m500 -262 c229 -131 571 -178 870 -121
48 9 91 13 95 10 18 -19 -71 -39 -255 -57 -306 -30 -634 60 -857 235 -10 8
-15 19 -11 25 4 7 20 0 43 -19 20 -16 72 -49 115 -73z m-1085 -263 c12 -3 22
-11 22 -16 0 -7 -32 -7 -92 -2 -196 19 -272 2 -313 -67 -28 -48 -26 -172 5
-252 26 -68 106 -160 189 -217 125 -84 322 -166 519 -216 68 -18 112 -34 112
-41 0 -17 5 -17 -109 12 -386 98 -657 263 -736 450 -19 45 -31 175 -21 228 9
47 49 95 101 119 35 17 56 18 170 14 72 -3 140 -8 153 -12z m1180 -2556 c2
-11 -18 -33 -59 -63 -129 -95 -255 -127 -399 -101 -66 12 -150 55 -150 78 0
30 22 30 86 2 73 -32 182 -43 251 -24 58 16 145 62 193 101 38 31 73 34 78 7z"/>
<path d="M29570 41354 c-14 -2 -40 -7 -57 -10 -21 -3 -33 -11 -33 -21 0 -12 7
-14 28 -9 15 3 83 9 152 12 263 13 525 -60 739 -205 79 -54 189 -106 266 -126
81 -21 233 -21 315 0 69 18 183 69 201 91 25 30 -4 32 -49 3 -26 -16 -84 -41
-130 -56 -74 -23 -94 -25 -200 -21 -158 7 -249 40 -412 149 -118 78 -269 141
-420 174 -72 15 -347 29 -400 19z"/>
<path d="M24742 41290 c-85 -98 -228 -141 -375 -114 -214 38 -332 37 -473 -7
-72 -22 -171 -66 -179 -80 -14 -22 20 -16 87 16 103 48 177 66 298 72 83 4
126 0 204 -16 55 -12 122 -21 150 -21 61 0 151 22 207 50 50 26 139 111 139
133 0 27 -12 20 -58 -33z"/>
<path d="M26910 41332 c0 -6 26 -13 58 -17 92 -9 220 -42 288 -74 79 -37 130
-72 218 -150 122 -108 251 -152 385 -130 72 11 131 37 112 48 -6 4 -37 -1 -69
-12 -44 -15 -74 -18 -133 -14 -99 6 -181 44 -275 128 -124 109 -201 154 -339
194 -97 28 -245 44 -245 27z"/>
<path d="M34718 41240 c-53 -9 -71 -18 -63 -30 3 -4 24 -3 47 3 68 16 253 12
333 -7 39 -10 129 -46 200 -82 154 -75 243 -95 341 -76 68 14 179 65 188 87 8
22 -1 19 -81 -22 -61 -30 -86 -37 -151 -41 -99 -6 -155 10 -294 81 -57 30
-135 62 -174 71 -78 21 -273 30 -346 16z"/>
<path d="M46730 41209 c0 -50 -85 -129 -138 -129 -15 0 -22 -6 -22 -20 0 -24
2 -24 67 -5 56 17 109 66 119 113 3 15 7 33 10 40 2 7 -5 12 -16 12 -11 0 -20
-5 -20 -11z"/>
<path d="M46855 39236 c-50 -24 -77 -51 -73 -72 4 -21 15 -21 91 -5 32 7 62 7
95 0 78 -17 87 -16 90 8 8 53 -135 102 -203 69z"/>
<path d="M47721 39206 c-21 -26 -6 -43 45 -51 66 -10 140 -40 195 -81 26 -19
53 -34 62 -34 51 0 -5 94 -88 145 -40 25 -61 31 -125 33 -60 3 -79 1 -89 -12z"/>
<path d="M36124 39178 c-47 -22 -58 -101 -20 -145 l24 -28 382 -3 382 -3 58
56 c66 63 94 69 161 35 37 -20 40 -20 46 -3 3 10 14 37 24 61 l18 42 -527 -1
c-341 0 -535 -4 -548 -11z"/>
<path d="M37373 39158 c-23 -41 -63 -133 -63 -147 0 -8 80 -11 250 -11 l251 0
-7 38 c-3 20 -16 62 -28 92 l-21 55 -181 3 -182 2 -19 -32z"/>
<path d="M37944 39173 c15 -51 36 -139 36 -155 0 -17 34 -18 711 -18 l711 0
71 75 c80 83 93 88 165 55 l43 -19 10 27 c5 15 12 33 14 40 3 9 -177 12 -881
12 -839 0 -885 -1 -880 -17z"/>
<path d="M39887 39183 c-6 -11 -44 -132 -50 -160 l-5 -23 263 0 264 0 -6 38
c-3 20 -13 62 -22 92 l-17 55 -211 3 c-116 1 -214 -1 -216 -5z"/>
<path d="M40505 39133 c7 -32 16 -75 19 -95 l7 -38 855 0 854 0 73 75 c80 83
93 88 164 55 46 -21 47 -20 58 28 l7 32 -1025 0 -1024 0 12 -57z"/>
<path d="M42721 39172 c-8 -15 -51 -158 -51 -169 0 -2 119 -3 264 -3 l263 0
-9 48 c-4 27 -14 69 -21 93 l-13 44 -211 3 c-198 2 -213 1 -222 -16z"/>
<path d="M43333 39178 c4 -11 17 -74 33 -156 l5 -23 463 3 464 3 26 24 c19 18
26 35 26 62 0 102 16 99 -546 99 -377 0 -475 -3 -471 -12z"/>
<path d="M46932 38994 c-73 -51 -31 -204 56 -204 84 0 98 149 20 204 -28 20
-48 20 -76 0z"/>
<path d="M47757 38969 c-50 -29 -64 -143 -22 -184 33 -34 61 -31 101 9 30 30
34 41 34 84 0 82 -54 125 -113 91z"/>
<path d="M24533 38125 c-219 -48 -373 -242 -373 -470 l0 -55 4071 0 4072 0 -7
79 c-19 234 -172 410 -390 450 -42 8 -1121 11 -3685 10 -3011 0 -3637 -3
-3688 -14z"/>
<path d="M47142 37160 c-139 -50 -438 -364 -646 -677 -301 -456 -549 -1050
-700 -1680 l-18 -71 -65 -12 c-276 -48 -525 -244 -644 -506 -65 -146 -257
-602 -380 -909 l-129 -319 35 -36 c19 -19 69 -66 112 -103 76 -67 82 -70 227
-118 241 -79 445 -187 590 -313 228 -197 445 -587 450 -808 1 -67 -2 -80 -21
-99 l-21 -22 -104 51 c-130 64 -202 83 -355 91 -118 7 -124 8 -154 36 -17 17
-40 49 -50 72 -21 46 -39 204 -37 318 1 55 -4 80 -22 115 -27 53 -68 109 -123
167 l-40 42 -31 -23 c-17 -13 -40 -26 -51 -30 -11 -3 -146 -17 -300 -31 -277
-24 -349 -36 -372 -58 -14 -14 -109 -313 -164 -517 -46 -170 -85 -365 -93
-470 -4 -41 -9 -100 -12 -131 l-6 -56 84 18 c469 104 1264 193 2043 229 403
18 738 9 803 -22 33 -16 57 -58 76 -128 8 -35 19 -54 27 -54 8 1 61 18 119 37
296 100 528 63 715 -114 88 -84 136 -170 156 -280 42 -237 -108 -539 -399
-802 -89 -80 -252 -197 -330 -236 -24 -12 -42 -25 -39 -28 5 -4 1854 611 2112
703 49 17 91 38 94 45 2 8 10 18 17 22 25 14 15 73 -32 194 -243 627 -416
1335 -518 2123 -35 265 -53 447 -76 763 -12 171 -27 300 -40 354 -40 168 -145
348 -272 469 -69 64 -198 156 -239 169 -23 8 -26 -3 46 195 178 493 436 974
728 1359 238 314 535 613 779 785 48 33 87 66 88 73 0 22 -54 76 -96 94 -57
26 -126 13 -257 -49 -403 -190 -805 -644 -1238 -1399 -103 -179 -315 -598
-410 -811 l-64 -142 -70 5 c-38 3 -418 24 -844 46 -426 21 -776 40 -777 42 -5
5 93 330 160 532 257 771 594 1407 933 1756 l94 97 -34 36 c-33 34 -38 36 -98
36 -37 -1 -87 -9 -117 -20z m-1203 -2700 c138 -26 221 -116 221 -240 0 -68
-25 -124 -80 -184 -105 -114 -244 -116 -365 -5 -61 57 -88 110 -88 176 0 96
83 218 169 248 47 17 75 18 143 5z m2105 -234 c110 -33 166 -116 166 -246 0
-174 -110 -274 -281 -256 -154 16 -230 98 -231 250 -2 129 51 198 182 243 77
26 101 28 164 9z"/>
<path d="M45785 34435 c-73 -40 -133 -128 -143 -211 -7 -64 19 -123 79 -179
114 -107 224 -113 328 -19 143 128 127 314 -33 396 -56 29 -188 36 -231 13z
m53 -122 c19 -26 15 -51 -13 -79 -27 -27 -54 -26 -87 4 -43 37 -2 109 56 98
17 -3 37 -14 44 -23z m222 -123 c24 -24 25 -48 4 -78 -30 -43 -114 -15 -114
38 0 28 35 60 65 60 14 0 34 -9 45 -20z"/>
<path d="M47875 34203 c-117 -48 -165 -114 -165 -228 0 -152 90 -235 254 -235
123 1 190 49 222 157 50 171 -50 324 -211 322 -33 0 -78 -7 -100 -16z m255
-152 c17 -32 12 -69 -12 -85 -48 -34 -101 -10 -101 44 0 39 24 60 70 60 22 0
36 -6 43 -19z m-258 -38 c22 -20 23 -61 1 -85 -38 -42 -122 -4 -108 50 12 49
70 69 107 35z"/>
<path d="M30440 36994 c-71 -31 -110 -92 -110 -174 0 -67 29 -123 82 -157 34
-23 52 -28 102 -28 72 1 114 20 152 70 29 39 41 107 30 169 -19 101 -154 164
-256 120z"/>
<path d="M31535 36936 c-54 -25 -100 -71 -122 -123 -9 -23 -13 -84 -13 -215 0
-206 9 -241 78 -298 68 -57 106 -61 454 -58 299 3 315 4 353 25 47 25 85 64
111 113 15 29 19 63 22 190 5 207 -4 247 -72 315 -32 32 -66 55 -92 63 -29 8
-138 12 -355 12 -308 0 -315 -1 -364 -24z m747 -54 c23 -14 46 -42 62 -74 24
-49 26 -61 26 -197 0 -171 -9 -213 -59 -262 -57 -57 -83 -60 -429 -57 -343 3
-345 4 -399 75 -28 36 -28 38 -31 207 -4 198 0 224 35 267 57 67 71 69 433 67
319 -3 326 -3 362 -26z"/>
<path d="M33067 36946 c-59 -22 -107 -64 -133 -120 -22 -48 -24 -63 -24 -227
0 -168 1 -177 26 -227 29 -58 87 -107 147 -123 24 -6 159 -9 361 -7 l323 3 49
30 c30 19 60 49 79 79 l30 49 3 181 c3 149 0 187 -13 223 -24 62 -61 102 -120
129 -49 23 -55 24 -370 23 -241 0 -329 -3 -358 -13z m691 -51 c49 -21 81 -52
103 -100 27 -59 27 -331 0 -390 -22 -50 -69 -91 -119 -105 -51 -14 -595 -13
-647 1 -57 16 -95 46 -116 93 -16 35 -19 67 -19 209 0 145 3 173 19 205 23 45
46 66 91 86 52 23 634 23 688 1z"/>
<path d="M23620 36225 c-281 -58 -530 -251 -674 -524 -176 -335 -168 -668 26
-961 146 -222 387 -395 653 -467 135 -36 324 -39 458 -5 335 84 596 354 687
710 128 505 -61 929 -515 1154 -181 90 -453 130 -635 93z m405 -84 c296 -78
513 -248 631 -496 72 -152 98 -317 75 -487 -59 -445 -338 -765 -726 -833 -104
-18 -157 -19 -261 -4 -375 52 -713 332 -824 684 -31 99 -38 264 -16 376 40
195 129 367 265 511 130 137 279 225 446 262 97 22 301 15 410 -13z"/>
<path d="M23653 35865 c-216 -61 -399 -258 -459 -494 -22 -88 -15 -244 14
-324 61 -167 223 -327 405 -400 337 -135 690 35 803 388 32 98 43 262 25 357
-40 207 -206 379 -441 458 -85 29 -271 37 -347 15z"/>
<path d="M26710 36225 c-294 -59 -546 -263 -690 -559 -76 -154 -102 -269 -103
-441 0 -124 3 -150 27 -229 15 -50 47 -128 71 -175 133 -256 406 -470 703
-548 133 -35 325 -37 454 -5 169 42 304 120 429 249 133 137 213 280 267 482
22 85 25 116 26 271 1 154 -2 184 -22 255 -89 311 -325 549 -653 659 -159 53
-366 70 -509 41z m423 -89 c256 -66 474 -226 595 -438 17 -29 45 -96 63 -148
55 -164 52 -403 -8 -595 -159 -507 -635 -758 -1125 -591 -358 122 -626 434
-670 782 -31 247 88 558 293 763 124 124 275 210 434 245 103 23 291 15 418
-18z"/>
<path d="M26743 35865 c-267 -72 -472 -350 -473 -640 -1 -372 426 -698 799
-610 111 27 188 71 276 160 137 136 196 283 197 490 0 85 -4 125 -21 175 -83
261 -345 441 -635 439 -50 0 -115 -7 -143 -14z"/>
<path d="M31551 35836 c-49 -18 -106 -70 -130 -119 -19 -39 -21 -61 -21 -225
0 -207 5 -227 69 -291 68 -68 100 -73 463 -69 298 3 315 4 353 25 47 25 85 64
111 113 15 29 19 63 22 190 5 206 -4 246 -71 315 -35 35 -65 57 -92 64 -58 16
-659 13 -704 -3z m736 -68 c66 -44 78 -79 81 -254 4 -180 -5 -223 -57 -275
-57 -57 -83 -60 -424 -57 -338 3 -351 6 -405 76 -27 35 -27 38 -30 206 -4 198
0 224 35 267 57 67 71 69 434 66 l326 -2 40 -27z"/>
<path d="M33056 35835 c-49 -17 -103 -68 -127 -120 -16 -34 -19 -66 -19 -223
0 -131 4 -192 13 -215 20 -47 64 -95 111 -120 40 -21 50 -22 381 -22 332 0
341 1 381 22 55 29 109 93 124 147 8 28 11 100 8 212 -3 151 -5 173 -25 211
-27 50 -81 96 -132 112 -59 17 -664 14 -715 -4z m702 -50 c49 -21 81 -52 103
-100 16 -34 18 -65 18 -195 -1 -195 -14 -234 -94 -282 -39 -23 -46 -23 -342
-26 -199 -2 -316 1 -343 8 -53 14 -117 72 -131 119 -6 22 -9 102 -7 202 3 160
4 167 30 206 15 23 44 49 70 62 41 20 56 21 351 21 255 0 314 -3 345 -15z"/>
<path d="M31572 34610 c-49 -11 -108 -55 -139 -102 l-28 -42 0 -207 0 -207 30
-43 c36 -51 83 -85 137 -100 25 -6 158 -9 362 -7 l323 3 49 30 c30 19 60 49
79 79 30 49 30 50 33 223 4 204 -6 248 -70 312 -66 67 -95 71 -442 70 -166 -1
-316 -5 -334 -9z m705 -72 c22 -15 51 -44 64 -65 22 -35 24 -51 27 -189 4
-167 -4 -216 -45 -265 -56 -66 -73 -69 -418 -69 -280 0 -314 2 -350 19 -46 21
-79 54 -94 94 -6 16 -11 102 -11 199 0 182 6 212 55 258 50 47 78 50 416 47
l316 -2 40 -27z"/>
<path d="M33066 34605 c-54 -19 -85 -44 -121 -94 l-30 -43 -3 -196 c-3 -189
-2 -199 20 -242 26 -51 91 -104 146 -120 51 -14 635 -13 687 1 26 7 58 29 91
63 34 33 56 65 63 91 15 53 14 337 -1 386 -15 51 -69 114 -122 142 -40 21 -52
22 -366 24 -261 2 -333 0 -364 -12z m719 -63 c22 -13 52 -39 65 -59 24 -35 25
-44 28 -210 3 -162 2 -176 -18 -219 -14 -28 -38 -56 -63 -72 l-40 -27 -324 -3
c-303 -3 -326 -2 -367 17 -29 13 -54 34 -73 62 -27 42 -28 46 -31 208 -4 188
3 222 51 270 61 58 79 61 422 58 303 -2 311 -3 350 -25z"/>
<path d="M50245 34590 c-370 -20 -641 -122 -706 -265 -28 -61 -25 -149 7 -213
26 -52 118 -162 135 -162 5 0 9 16 9 35 0 50 41 126 92 170 159 136 554 217
978 201 192 -7 317 -23 508 -67 333 -76 606 -180 837 -320 82 -49 214 -150
227 -172 4 -7 12 -71 19 -143 7 -71 15 -134 18 -141 11 -21 104 59 135 117 24
45 28 60 24 113 -5 78 -32 135 -100 212 -336 376 -1377 679 -2183 635z"/>
<path d="M17685 34125 c-21 -31 -74 -89 -117 -130 -92 -87 -213 -152 -343
-186 -106 -28 -281 -30 -425 -5 -139 24 -369 25 -505 1 -194 -33 -383 -100
-545 -190 -103 -58 -140 -89 -124 -105 7 -7 42 9 104 46 168 101 360 173 563
210 123 23 377 23 507 1 121 -21 307 -22 408 -1 147 30 291 105 399 207 99 93
168 207 125 207 -5 0 -26 -25 -47 -55z"/>
<path d="M16690 33351 c-22 -4 -35 -12 -35 -21 0 -8 7 -13 15 -11 8 2 81 6
162 9 285 9 497 -50 732 -203 108 -71 172 -100 277 -126 155 -40 340 -13 475
69 24 15 44 33 44 39 0 18 -1 17 -73 -22 -81 -44 -200 -75 -291 -75 -143 1
-272 45 -431 149 -145 95 -300 156 -472 186 -86 15 -332 19 -403 6z"/>
<path d="M23720 29960 l0 -3030 1988 1 c1126 1 1953 5 1908 10 -327 34 -566
147 -777 366 -225 234 -368 564 -434 1000 -18 125 -33 408 -27 521 4 81 5 84
36 103 123 77 445 109 1082 109 l394 0 54 108 c82 163 118 273 119 357 0 39
-3 94 -8 123 -7 48 -6 52 13 52 46 0 144 -168 184 -315 16 -62 21 -110 22
-212 l1 -132 40 -5 c22 -3 83 -8 135 -11 143 -9 441 -44 528 -61 127 -27 140
-39 157 -152 5 -34 10 -42 23 -38 187 58 376 50 516 -21 69 -35 166 -135 202
-208 58 -120 42 -290 -41 -430 -181 -304 -599 -549 -1007 -590 l-68 -7 -63
-81 c-227 -290 -507 -447 -857 -480 -19 -2 976 -5 2213 -5 l2247 -2 0 2710 0
2710 -291 0 -291 0 -29 29 c-23 23 -29 38 -29 71 0 33 6 48 29 71 l29 29 291
0 291 0 0 220 0 220 -4290 0 -4290 0 0 -3030z"/>
<path d="M33201 32119 c-18 -11 -81 -45 -140 -76 -129 -68 -233 -133 -229
-143 2 -4 255 -622 563 -1374 504 -1229 563 -1367 585 -1374 14 -4 120 -7 235
-7 192 0 216 2 285 23 102 32 184 77 238 132 57 56 104 154 106 219 1 48 -14
73 -799 1335 -440 707 -802 1286 -805 1286 -3 0 -20 -9 -39 -21z"/>
<path d="M39905 31560 c-121 -21 -245 -66 -337 -121 -173 -102 -218 -109 -406
-57 -106 30 -130 33 -252 32 -119 0 -159 -5 -340 -43 -330 -68 -402 -67 -706
14 -297 79 -413 81 -634 9 -266 -87 -348 -88 -640 -1 -123 37 -195 49 -283 51
-75 1 -80 -1 -103 -27 -27 -32 -31 -63 -10 -93 13 -18 29 -22 118 -27 74 -4
148 -18 263 -48 264 -69 279 -71 405 -66 102 5 131 10 260 51 238 77 305 80
520 24 259 -67 309 -78 395 -84 106 -7 232 10 428 58 121 30 145 32 287 32
137 -1 167 -4 255 -28 123 -34 214 -42 285 -27 30 6 125 45 210 86 168 80 294
121 402 132 57 5 72 10 88 31 26 32 25 77 0 102 -25 25 -68 25 -205 0z"/>
<path d="M47385 30940 c-75 -11 -161 -38 -246 -77 l-75 -34 -12 -172 c-19
-281 -57 -492 -132 -734 -20 -68 -33 -123 -29 -123 24 0 181 65 266 109 125
66 236 146 345 250 244 231 346 462 272 618 -38 79 -130 142 -239 162 -64 12
-76 12 -150 1z"/>
<path d="M52510 29901 c-101 -103 -217 -187 -369 -269 l-94 -50 -52 -139
c-118 -312 -241 -542 -397 -740 -28 -35 -45 -63 -38 -63 27 0 340 132 501 211
195 96 299 154 435 241 90 58 91 58 132 145 64 135 84 225 84 373 0 103 -4
140 -25 213 -20 70 -71 182 -80 176 -1 -1 -45 -45 -97 -98z"/>
<path d="M43952 29149 c-7 -244 -18 -624 -24 -844 -7 -229 -13 -883 -13 -1532
l0 -1133 -1345 1 c-902 0 -1337 4 -1320 10 28 12 76 54 93 84 8 14 14 128 17
360 l5 340 665 417 c366 229 689 433 719 455 174 124 321 338 380 552 48 173
55 539 12 672 -53 165 -192 305 -360 361 -65 22 -74 23 -743 26 l-678 3 0 114
c0 120 -8 156 -43 193 -50 54 -77 60 -333 71 -1643 72 -1884 86 -2282 137
-150 19 -290 34 -311 34 -99 0 -173 -123 -127 -211 7 -14 84 -122 171 -240
165 -225 193 -271 219 -359 9 -30 117 -690 241 -1467 124 -776 229 -1422 234
-1435 14 -37 62 -89 96 -104 30 -13 -4997 -17 -21740 -19 l-4010 0 -57 -23
c-81 -33 -160 -108 -200 -190 -31 -62 -33 -73 -33 -172 0 -99 2 -110 32 -171
39 -79 102 -140 181 -177 l57 -27 565 -6 c311 -4 7167 -7 15236 -8 l14671 -1
7 -267 c50 -1948 179 -4985 221 -5175 49 -226 158 -421 321 -579 62 -60 179
-152 204 -161 10 -3 86 -579 390 -2953 100 -775 185 -1437 190 -1470 8 -52 49
-359 94 -705 51 -389 194 -1397 285 -2005 70 -462 106 -629 172 -795 140 -348
444 -653 794 -795 39 -16 74 -32 78 -35 12 -11 -58 -195 -104 -274 -59 -99
-156 -197 -237 -239 -91 -47 -182 -75 -492 -152 -462 -115 -656 -180 -768
-258 -115 -80 -141 -142 -98 -231 106 -216 424 -271 1402 -245 533 14 607 11
859 -26 299 -45 446 -26 579 74 47 36 68 61 94 111 89 176 104 548 41 1038
-10 84 -19 159 -19 167 0 7 46 36 103 64 347 173 595 506 662 890 9 47 15 146
15 225 0 122 -309 7148 -325 7374 l-5 82 55 0 c36 0 57 -4 59 -12 2 -7 45
-287 96 -623 304 -2033 1073 -6742 1150 -7046 104 -410 387 -760 768 -948 53
-27 114 -54 135 -61 20 -6 37 -17 37 -24 0 -24 -48 -152 -82 -221 -71 -141
-164 -238 -283 -298 -73 -36 -175 -66 -511 -150 -473 -119 -666 -189 -767
-277 -85 -75 -99 -141 -49 -221 88 -137 231 -190 599 -220 110 -9 282 -10 668
-3 673 11 718 10 932 -22 239 -37 390 -38 491 -5 238 78 312 241 312 691 0
210 -25 508 -56 688 -5 24 -3 32 8 32 8 0 54 20 103 45 392 200 647 593 671
1035 3 56 -112 2708 -280 6460 -276 6143 -300 6723 -328 7994 l-3 128 90 29
c190 63 258 136 210 229 -10 20 -27 32 -53 39 -158 42 -1014 227 -1232 266
-52 10 -98 20 -102 24 -4 3 -16 474 -27 1046 -12 572 -24 1064 -27 1093 -6 60
-5 60 -106 32 -428 -116 -1464 -176 -2626 -151 -564 12 -824 22 -1187 46 -225
15 -782 23 -980 15 -60 -3 -249 -5 -420 -5 -256 0 -324 3 -388 17 -140 32
-217 77 -232 139 -10 42 23 59 120 59 l80 1 -126 65 c-269 139 -435 313 -342
359 20 10 17 14 -45 44 -218 107 -401 261 -566 479 -39 52 -79 114 -184 291
-5 8 -13 -177 -20 -430z m-1231 -525 c60 -28 125 -93 153 -153 19 -42 21 -63
21 -236 0 -148 -4 -207 -18 -266 -36 -155 -141 -322 -264 -420 -32 -26 -326
-214 -653 -418 l-595 -372 -3 933 c-1 513 0 939 3 946 4 10 135 12 657 10 644
-3 654 -3 699 -24z m6565 -2425 c121 -939 214 -1910 255 -2679 16 -291 16
-900 0 -1075 -33 -365 -85 -531 -190 -602 -140 -95 -671 -180 -1391 -225 -276
-17 -1342 -17 -1590 0 -896 62 -1391 178 -1507 353 -45 68 -70 217 -95 554
-17 234 -17 1608 0 2115 27 798 66 1718 74 1725 2 2 55 -14 118 -36 575 -199
1432 -272 2270 -193 592 55 1261 186 1845 362 88 27 161 47 163 46 2 -1 23
-157 48 -345z"/>
<path d="M49065 26458 c-581 -175 -1255 -305 -1895 -365 -236 -22 -942 -25
-1155 -5 -413 39 -770 107 -1039 197 -55 18 -101 33 -102 32 -5 -5 -45 -958
-66 -1572 -17 -502 -17 -2068 0 -2284 27 -329 52 -442 112 -500 161 -157 695
-264 1555 -313 270 -15 1106 -15 1385 1 842 46 1375 134 1501 248 65 59 106
188 136 426 15 118 18 221 18 607 0 444 -6 590 -41 1075 -44 619 -136 1508
-230 2235 -30 232 -34 260 -43 259 -3 -1 -64 -19 -136 -41z"/>
<path d="M19670 29043 c0 -17 352 -2943 365 -3040 l6 -43 740 0 c583 0 741 3
744 13 24 67 97 1080 169 2342 20 336 38 640 41 678 l5 67 -1035 0 c-979 0
-1035 -1 -1035 -17z m1201 -763 c172 -54 315 -193 385 -376 39 -99 45 -263 15
-362 -64 -211 -251 -346 -496 -359 -210 -11 -389 71 -510 233 -67 89 -90 159
-90 274 1 275 183 529 426 594 79 22 195 20 270 -4z"/>
<path d="M20655 28239 c-146 -21 -285 -129 -355 -274 -110 -226 -89 -430 58
-573 106 -104 226 -152 381 -152 160 0 276 44 372 139 142 142 166 354 66 566
-98 206 -310 325 -522 294z"/>
<path d="M29290 28576 c-30 -7 -78 -20 -107 -30 -46 -15 -53 -21 -57 -49 -45
-279 -99 -470 -192 -680 l-44 -99 43 7 c188 32 450 170 600 318 87 85 132 149
158 223 26 73 24 120 -7 182 -58 116 -216 167 -394 128z"/>
<path d="M56255 16003 c-598 -52 -1104 -156 -1345 -278 -70 -35 -152 -101
-171 -137 -6 -11 -10 -167 -9 -395 l0 -377 25 -53 c100 -220 494 -408 1103
-528 74 -15 136 -24 139 -21 3 2 16 60 29 128 43 217 155 659 184 723 5 11 30
85 56 165 25 80 74 219 107 310 l60 165 -12 120 c-20 198 -14 185 -75 183 -28
-1 -69 -3 -91 -5z"/>
</g>
</svg>
