<?xml version="1.0" standalone="no"?>
<!DOCTYPE svg PUBLIC "-//W3C//DTD SVG 20010904//EN"
 "http://www.w3.org/TR/2001/REC-SVG-20010904/DTD/svg10.dtd">
<svg version="1.0" xmlns="http://www.w3.org/2000/svg"
 width="2000.000000pt" height="2000.000000pt" viewBox="0 0 2000.000000 2000.000000"
 preserveAspectRatio="xMidYMid meet">

<g transform="translate(0.000000,2000.000000) scale(0.100000,-0.100000)"
fill="#000000" stroke="none">
<path d="M0 10000 l0 -10000 10000 0 10000 0 0 10000 0 10000 -10000 0 -10000
0 0 -10000z m1470 7600 l0 -40 -370 0 -370 0 0 -290 0 -290 -45 0 -45 0 0 330
0 330 415 0 415 0 0 -40z m8210 -290 l0 -330 -45 0 -45 0 0 290 0 290 -375 0
-375 0 0 40 0 40 420 0 420 0 0 -330z m-8570 60 c0 -19 -7 -20 -100 -20 l-100
0 0 -65 c0 -63 -1 -65 -25 -65 -25 0 -25 1 -25 85 l0 85 125 0 c118 0 125 -1
125 -20z m8330 -65 c0 -84 0 -85 -25 -85 -24 0 -25 2 -25 65 l0 65 -100 0
c-93 0 -100 1 -100 20 0 19 7 20 125 20 l125 0 0 -85z m-950 -365 c102 -40
211 -114 312 -209 119 -113 208 -229 278 -363 l53 -100 -134 5 c-93 3 -158 11
-214 26 -168 46 -383 175 -450 270 -28 40 -30 48 -29 134 1 79 27 257 40 278
5 8 63 -9 144 -41z m5130 -1318 l0 -1038 -158 -219 c-87 -121 -222 -310 -302
-420 -153 -212 -350 -487 -866 -1205 -176 -245 -390 -542 -475 -660 -85 -118
-334 -464 -553 -768 -364 -505 -399 -551 -417 -541 -14 7 -17 14 -11 22 8 10
887 1232 2012 2797 153 212 379 527 504 700 l226 314 0 1028 c0 1021 0 1028
20 1028 20 0 20 -7 20 -1038z m489 751 c54 -94 96 -174 93 -177 -10 -11 -402
-7 -402 4 0 17 194 350 202 348 4 -2 52 -80 107 -175z m2169 -10 l3 -133 -981
0 -980 0 0 128 c0 71 3 132 7 135 3 4 443 6 977 5 l971 -3 3 -132z m-3 -348
c0 -20 -8 -20 -1257 -23 l-1258 -2 0 25 0 25 1258 -2 c1249 -3 1257 -3 1257
-23z m5 -255 c0 -20 -7 -20 -1260 -20 -1253 0 -1260 0 -1260 20 0 20 7 20
1260 20 1253 0 1260 0 1260 -20z m-20 -260 c0 -20 -7 -20 -1260 -20 -1253 0
-1260 0 -1260 20 0 20 7 20 1260 20 1253 0 1260 0 1260 -20z m-670 -255 l0
-25 -919 0 c-631 0 -922 3 -926 10 -4 6 -4 17 -1 25 5 13 130 15 926 15 l920
0 0 -25z m-6460 -815 c0 -39 -159 -282 -250 -382 -123 -135 -293 -250 -451
-303 -40 -14 -76 -25 -79 -25 -4 0 -14 44 -23 98 -40 238 -37 272 37 350 113
120 330 229 520 261 75 13 246 13 246 1z m-8400 -1110 l0 -290 370 0 370 0 0
-45 0 -45 -412 2 -413 3 -3 333 -2 332 45 0 45 0 0 -290z m8948 -42 l-3 -333
-415 0 -415 0 0 40 0 40 373 3 372 2 0 290 0 290 45 0 45 0 -2 -332z m-8770
25 l3 -62 97 -3 c89 -3 97 -5 97 -23 0 -19 -7 -20 -120 -20 l-120 0 -3 88 c-3
87 -2 88 20 85 21 -3 23 -9 26 -65z m8532 -23 l0 -91 -122 3 c-119 3 -123 4
-126 26 -3 22 -1 22 97 22 l101 0 0 65 c0 63 1 65 25 65 25 0 25 -1 25 -90z
m-716 -1490 c280 -27 513 -109 743 -262 141 -93 334 -284 422 -417 76 -115
115 -191 104 -201 -4 -5 -32 -15 -61 -24 l-53 -15 -17 31 c-207 379 -558 641
-982 734 -121 27 -449 27 -569 0 -332 -72 -626 -250 -827 -499 -36 -45 -89
-121 -117 -169 -29 -49 -56 -88 -60 -88 -20 0 -117 32 -117 38 0 4 20 42 44
84 275 484 769 777 1341 797 22 0 89 -4 149 -9z m-19 -481 c108 -13 272 -65
362 -116 164 -91 311 -242 392 -400 l21 -42 -42 -12 c-24 -6 -44 -7 -45 -2
-13 38 -89 147 -146 209 -124 134 -300 232 -486 269 -102 21 -290 16 -391 -10
-136 -36 -295 -125 -396 -222 -57 -54 -136 -158 -165 -215 -11 -21 -25 -35
-32 -33 -73 26 -69 22 -51 57 62 122 208 283 327 361 121 80 284 140 426 157
98 11 127 11 226 -1z m20 -394 c118 -31 216 -102 284 -208 45 -69 49 -84 24
-89 -13 -3 -27 11 -47 46 -91 157 -278 247 -453 218 -131 -22 -250 -103 -313
-215 -24 -44 -35 -54 -50 -50 -26 7 -26 8 12 73 60 106 188 201 304 229 62 14
175 12 239 -4z m1695 -260 c80 -41 121 -120 123 -237 1 -54 4 -68 17 -68 98 0
646 27 955 46 422 27 580 9 920 -107 266 -91 542 -385 673 -719 46 -118 78
-226 98 -335 17 -89 19 -149 17 -551 -2 -558 -11 -624 -119 -893 -117 -288
-404 -593 -644 -681 -63 -23 -272 -84 -342 -99 -98 -22 -270 -31 -417 -21
-327 21 -1171 55 -1171 46 0 -3 5 -27 11 -55 18 -85 -13 -200 -69 -257 -57
-57 -165 -82 -266 -61 l-39 8 7 63 c3 34 19 116 35 181 16 66 27 123 25 127
-3 5 -335 8 -737 8 -946 0 -1688 -15 -2792 -57 -242 -9 -541 -16 -665 -17
-198 -1 -236 2 -318 21 -448 106 -795 451 -904 900 -21 85 -22 114 -25 758 -3
460 -1 694 7 747 27 185 110 389 218 534 79 106 230 247 334 312 162 100 370
168 553 178 55 4 231 -1 390 -10 1203 -67 2655 -99 3611 -79 l320 6 -28 131
c-36 172 -36 194 0 202 15 3 32 8 37 10 27 10 141 -9 185 -31z m-5915 -1280
c0 -20 -8 -20 -1467 -23 l-1468 -2 0 25 0 25 1468 -2 c1459 -3 1467 -3 1467
-23z m-2690 -244 c96 -44 130 -139 86 -237 -26 -57 -72 -87 -142 -92 -112 -8
-184 59 -184 173 0 52 4 67 29 99 32 42 95 76 141 76 17 0 48 -9 70 -19z
m2265 -136 l0 -135 -975 0 -975 0 0 135 0 135 975 0 975 0 0 -135z m0 -345 c0
-20 -7 -20 -1260 -20 -1253 0 -1260 0 -1260 20 0 20 7 20 1260 20 1253 0 1260
0 1260 -20z m-10 -275 l0 -25 -1257 2 -1258 3 -3 23 -3 22 1260 0 1261 0 0
-25z m-670 -255 c0 -20 -7 -20 -925 -20 -918 0 -925 0 -925 20 0 20 7 20 925
20 918 0 925 0 925 -20z m4815 -1542 c44 -93 174 -191 286 -217 189 -44 404
53 488 218 14 27 28 41 41 41 28 0 25 -18 -11 -76 -172 -274 -535 -320 -758
-96 -56 56 -117 153 -104 166 17 16 40 2 58 -36z m1264 -93 c9 -10 -102 -176
-162 -241 -86 -93 -163 -153 -270 -209 -343 -181 -762 -142 -1064 100 -90 72
-194 194 -242 285 l-31 58 31 11 c48 17 53 14 76 -31 11 -24 46 -76 78 -116
126 -161 314 -277 517 -318 100 -20 322 -15 413 10 72 20 208 83 273 128 101
69 210 188 276 300 27 46 27 46 64 36 20 -6 39 -12 41 -13z m3615 -931 l918
-914 1914 0 c1907 0 1914 0 1914 -20 0 -20 -7 -20 -1927 -20 l-1927 0 -925
924 c-812 812 -923 926 -911 940 7 9 16 14 19 10 3 -3 419 -417 925 -920z
m-5765 779 c30 -67 149 -231 228 -314 461 -484 1191 -586 1766 -245 210 123
408 324 518 524 19 36 40 62 50 62 29 0 109 -32 109 -43 0 -7 -28 -58 -63
-115 -233 -384 -595 -637 -1047 -733 -141 -30 -426 -32 -570 -5 -411 79 -770
307 -1003 638 -50 72 -127 202 -127 216 0 8 84 37 116 41 6 0 16 -11 23 -26z
m-2932 -985 c34 -68 103 -201 152 -296 l89 -172 -38 -20 -39 -20 -127 248
c-70 136 -130 252 -133 259 -4 8 -112 -43 -335 -157 -180 -94 -332 -168 -336
-165 -9 6 -34 64 -29 69 2 2 141 75 309 161 168 87 328 171 355 187 28 15 55
28 60 28 6 0 38 -55 72 -122z m-122 -284 c33 -63 37 -77 25 -84 -25 -16 -29
-12 -57 44 l-26 54 -90 -45 c-70 -35 -92 -42 -98 -31 -5 7 -9 16 -9 20 0 6
198 117 210 118 3 0 23 -34 45 -76z m11279 -651 c133 -77 129 -64 34 -120 -45
-27 -93 -55 -105 -62 l-23 -12 0 121 c0 66 3 120 7 120 3 0 43 -21 87 -47z
m2236 -203 l0 -140 -975 0 -975 0 0 140 0 140 975 0 975 0 0 -140z m-13860 67
c168 -43 333 -120 478 -224 73 -52 73 -55 -23 -102 -186 -92 -420 -125 -618
-87 -176 34 -207 66 -282 295 -43 129 -43 127 45 136 30 4 62 8 70 10 42 11
242 -6 330 -28z m11501 -84 c55 -32 99 -61 99 -64 0 -7 -191 -119 -203 -119
-4 0 -7 54 -7 120 0 66 3 120 6 120 4 0 51 -26 105 -57z m2339 -383 c0 -20 -7
-20 -1260 -20 -1253 0 -1260 0 -1260 20 0 20 7 20 1260 20 1253 0 1260 0 1260
-20z m-680 -290 c0 -20 -7 -20 -925 -20 -918 0 -925 0 -925 20 0 20 7 20 925
20 918 0 925 0 925 -20z m-11769 -1257 c-3 -253 -78 -513 -200 -692 -42 -62
-157 -191 -170 -191 -12 0 -136 170 -172 234 -24 44 -33 71 -32 105 1 60 51
182 116 280 57 86 187 220 262 272 59 40 188 109 194 104 2 -3 3 -53 2 -112z
m1012 -662 c81 -158 147 -292 147 -298 0 -8 -706 -378 -723 -378 -4 0 -17 14
-28 32 l-20 31 53 30 c29 16 178 93 331 171 152 79 277 145 277 147 0 3 -58
118 -130 256 -71 138 -130 253 -130 257 0 7 57 39 70 40 3 1 71 -129 153 -288z
m-213 -108 c19 -38 36 -71 38 -75 5 -10 -214 -119 -222 -111 -20 21 0 42 79
81 l85 42 -30 59 c-29 58 -28 68 5 70 6 1 26 -29 45 -66z m3896 42 c4 -8 1
-22 -6 -30 -11 -13 -7 -15 24 -15 37 0 44 -8 25 -27 -7 -7 -1 -12 20 -16 52
-11 136 -99 155 -164 6 -19 0 -26 -42 -47 -75 -38 -160 -56 -258 -55 -49 1
-102 4 -119 8 -28 6 -30 10 -35 61 -4 35 -7 46 -10 31 -9 -43 -30 -37 -30 8 0
35 -4 43 -25 51 -14 5 -25 16 -25 25 0 19 29 20 36 0 8 -21 23 -19 43 7 26 31
45 15 26 -22 -23 -44 -18 -50 8 -8 12 20 37 48 55 61 29 22 50 29 137 51 11 3
-1 3 -27 1 -58 -6 -71 9 -23 25 29 10 34 15 24 26 -16 19 -4 44 21 44 11 0 23
-7 26 -15z m259 -96 c4 -6 -2 -19 -14 -30 -24 -23 -25 -32 -10 -61 8 -16 8
-22 -2 -29 -9 -5 -17 -2 -23 9 -5 9 -22 34 -38 54 -25 33 -27 39 -13 44 9 4
24 -1 35 -11 19 -17 20 -17 29 9 11 27 25 33 36 15z m-3035 -28 c5 -11 10 -83
10 -161 0 -78 -5 -150 -10 -161 -13 -23 -45 -25 -54 -4 -5 14 -9 14 -35 0 -86
-44 -161 13 -161 122 0 62 17 94 60 116 39 20 83 16 112 -10 17 -15 18 -13 18
44 0 33 3 63 7 66 13 14 43 7 53 -12z m618 -10 c6 -37 -26 -52 -52 -25 -12 12
-13 20 -5 35 15 28 53 21 57 -10z m1107 -151 c0 -165 -1 -175 -19 -178 -11 -2
-25 4 -32 13 -12 16 -14 16 -36 1 -51 -36 -126 -10 -152 54 -19 47 -20 78 -5
117 26 69 90 98 148 69 l31 -17 0 41 c0 54 15 82 43 78 22 -3 22 -6 22 -178z
m203 118 c2 -32 5 -58 8 -58 3 0 19 7 36 16 89 46 178 -53 148 -165 -20 -76
-102 -114 -158 -75 -22 15 -24 15 -36 -1 -7 -9 -21 -16 -32 -13 -18 3 -19 14
-22 168 -1 90 0 170 3 178 3 7 15 12 27 10 20 -3 23 -10 26 -60z m1370 49 c16
-18 2 -35 -33 -39 -39 -4 -49 -45 -13 -50 31 -4 32 -42 1 -46 -21 -3 -22 -9
-25 -99 -2 -77 -6 -98 -20 -106 -12 -8 -21 -7 -32 2 -13 11 -16 34 -16 107 0
88 -1 93 -22 96 -15 2 -23 10 -23 23 0 13 8 21 23 23 17 3 22 10 22 33 0 43
31 69 84 69 24 0 48 -6 54 -13z m1060 -13 c2 -11 -4 -26 -12 -33 -31 -26 -71
14 -45 45 17 21 53 14 57 -12z m116 10 c3 -9 6 -50 6 -92 l0 -76 50 49 c41 40
54 48 67 39 28 -17 26 -32 -7 -65 l-31 -31 42 -70 c38 -63 41 -71 26 -85 -23
-23 -42 -11 -83 52 -41 65 -61 62 -66 -7 -3 -44 -24 -66 -52 -55 -14 6 -16 28
-16 175 0 93 3 172 7 175 12 13 51 7 57 -9z m-4260 -88 c18 -8 41 -24 50 -37
19 -28 21 -85 4 -96 -7 -4 -48 -10 -90 -13 l-77 -5 12 -25 c17 -34 67 -39 107
-10 54 39 82 4 34 -41 -22 -20 -36 -24 -89 -24 -53 0 -68 4 -89 24 -69 64 -53
191 27 226 41 18 70 18 111 1z m272 -11 c17 -11 24 -24 22 -38 -4 -30 -35 -33
-63 -7 -27 25 -68 24 -73 -2 -3 -13 10 -21 54 -34 72 -21 109 -54 99 -92 -11
-45 -38 -65 -98 -70 -64 -5 -114 16 -123 53 -12 49 19 60 56 20 37 -40 123
-30 90 10 -6 8 -36 21 -66 30 -36 10 -59 24 -71 41 -50 77 85 147 173 89z
m123 11 c8 -9 11 -54 9 -132 -3 -108 -5 -119 -22 -122 -35 -7 -46 25 -46 134
0 80 3 106 16 118 19 20 28 20 43 2z m211 -11 c14 -12 17 -12 28 5 16 25 38
25 52 1 5 -11 10 -73 10 -138 0 -145 -14 -181 -75 -201 -74 -25 -166 5 -173
57 -5 33 24 36 59 7 17 -14 41 -26 55 -26 32 0 64 33 64 67 0 25 -1 26 -20 8
-27 -24 -94 -24 -122 1 -68 61 -60 196 14 229 37 17 83 12 108 -10z m182 5
c12 -18 13 -18 31 -2 11 10 35 17 59 17 31 0 45 -6 64 -28 22 -26 24 -37 24
-128 0 -83 -3 -101 -16 -106 -35 -13 -49 10 -52 88 -3 107 -7 119 -40 119 -42
0 -52 -17 -52 -91 0 -87 -12 -121 -43 -117 -21 3 -22 7 -25 127 -2 93 1 126
10 133 20 12 27 10 40 -12z m419 -17 c31 -30 45 -79 30 -102 -6 -10 -36 -16
-90 -19 -84 -5 -94 -12 -64 -44 21 -24 64 -23 96 2 35 28 57 26 57 -5 0 -54
-113 -85 -180 -50 -16 9 -37 29 -46 47 -21 41 -15 129 12 159 49 56 136 61
185 12z m758 23 c6 -8 24 -51 39 -96 l28 -83 33 92 c34 95 51 115 78 89 13
-14 9 -32 -41 -164 -31 -82 -64 -157 -74 -167 -25 -24 -82 -32 -106 -14 -28
20 -14 47 24 47 22 0 33 6 41 23 10 22 4 43 -60 204 -18 47 -19 54 -5 68 19
19 28 19 43 1z m1171 -1 c10 -12 15 -12 35 1 27 18 71 10 85 -16 14 -25 -11
-44 -48 -35 -42 9 -54 -13 -61 -113 -5 -73 -9 -87 -24 -90 -39 -8 -47 15 -47
125 0 57 5 113 10 124 13 23 33 25 50 4z m294 1 c18 -8 41 -24 50 -37 19 -28
21 -85 4 -96 -7 -4 -48 -10 -90 -13 l-77 -5 12 -25 c17 -34 67 -39 107 -10 54
39 82 4 34 -41 -22 -20 -36 -24 -89 -24 -53 0 -68 4 -89 24 -69 65 -54 191 27
226 41 18 70 18 111 1z m270 0 c18 -8 41 -24 50 -37 19 -28 21 -85 4 -96 -7
-4 -48 -10 -90 -13 l-77 -5 12 -25 c17 -34 67 -39 107 -10 54 39 82 4 34 -41
-22 -20 -36 -24 -89 -24 -53 0 -68 4 -89 24 -69 65 -54 191 27 226 41 18 70
18 111 1z m149 -6 c12 -18 16 -18 26 -6 19 23 65 29 104 12 50 -21 70 -64 65
-139 -4 -52 -9 -64 -36 -88 -39 -35 -88 -38 -126 -8 l-26 20 0 -59 c0 -62 -16
-90 -45 -78 -13 4 -15 33 -15 180 0 171 2 182 32 185 4 1 13 -8 21 -19z m285
8 c8 -8 12 -52 12 -130 0 -101 -2 -120 -16 -125 -9 -3 -24 -2 -33 4 -13 8 -17
32 -19 123 -3 111 4 140 32 140 7 0 17 -5 24 -12z m629 -5 c37 -17 59 -52 50
-77 -9 -23 -37 -19 -63 9 -13 14 -34 25 -48 25 -75 0 -86 -129 -13 -154 24 -9
31 -6 61 23 41 40 69 37 64 -6 -2 -18 -15 -35 -38 -51 -46 -31 -127 -27 -165
8 -34 32 -49 89 -36 138 13 47 28 67 66 87 39 19 78 19 122 -2z m257 3 c51
-21 76 -60 76 -118 0 -88 -46 -138 -127 -138 -50 0 -82 18 -110 59 -45 66 -19
166 50 196 41 18 69 18 111 1z m159 -1 c13 -13 19 -13 46 1 35 17 82 12 102
-12 10 -13 14 -12 31 3 30 27 95 23 119 -6 16 -19 19 -40 19 -127 0 -88 -3
-106 -16 -111 -37 -14 -49 10 -54 108 -5 86 -7 94 -26 97 -39 6 -54 -23 -54
-103 0 -89 -5 -105 -35 -105 -30 0 -35 16 -35 105 0 89 -5 105 -35 105 -34 0
-39 -14 -45 -109 -5 -88 -18 -111 -54 -98 -14 5 -16 25 -16 131 0 120 3 132
32 135 4 1 13 -6 21 -14z m-2403 -156 c-34 -80 -150 -136 -266 -126 -73 5
-123 32 -153 81 -31 49 -27 54 27 45 112 -19 245 -2 345 44 50 23 52 23 55 4
2 -10 -2 -32 -8 -48z m1755 -49 c9 -15 -14 -50 -33 -50 -39 0 -57 51 -25 69
18 9 46 0 58 -19z"/>
<path d="M6042 10123 c3 -14 414 -272 543 -340 l50 -26 450 9 c388 8 454 11
476 25 49 33 359 321 359 335 0 12 -139 14 -941 14 -871 0 -940 -1 -937 -17z"/>
<path d="M8175 10130 c-38 -15 -346 -302 -343 -319 4 -21 155 -24 618 -13
l345 9 545 117 c300 64 623 133 718 154 95 20 173 42 173 47 -1 12 -2026 18
-2056 5z"/>
<path d="M10520 9975 c-80 -12 -419 -64 -755 -114 -648 -98 -638 -95 -681
-159 -25 -36 -28 -83 -45 -632 -15 -477 -3 -1164 22 -1309 10 -59 41 -102 88
-120 14 -5 114 -24 221 -41 107 -17 263 -42 345 -55 83 -13 321 -52 530 -86
209 -34 403 -64 430 -66 101 -9 145 44 213 254 141 442 178 983 106 1563 -30
236 -117 619 -162 709 -40 82 -95 91 -312 56z"/>
<path d="M5740 9963 c-38 -7 -196 -174 -269 -282 -192 -289 -281 -606 -281
-999 1 -472 146 -872 419 -1155 151 -156 164 -156 381 3 85 62 201 147 258
188 109 80 120 93 145 187 91 336 107 764 46 1244 -28 228 -65 411 -87 441
-21 28 -469 344 -519 366 -33 14 -47 15 -93 7z"/>
<path d="M8760 8610 c0 -5 9 -10 21 -10 11 0 17 -4 14 -10 -3 -5 -14 -10 -23
-10 -16 0 -17 -30 -14 -409 l3 -410 -23 -4 c-13 -2 -3 -5 22 -6 33 -1 41 -4
30 -11 -9 -6 -10 -10 -3 -10 7 0 17 8 22 18 10 16 10 16 11 -1 0 -10 6 -17 13
-14 12 4 12 121 -1 142 -4 6 -5 34 -3 63 2 38 -1 52 -11 52 -10 0 -10 2 1 9
11 7 12 13 3 23 -6 8 -9 31 -6 51 2 21 -1 48 -7 59 -9 17 -9 23 0 26 11 4 15
34 5 45 -3 3 -6 98 -6 211 l0 206 -24 0 c-13 0 -24 -4 -24 -10z m47 -792 c-3
-8 -6 -5 -6 6 -1 11 2 17 5 13 3 -3 4 -12 1 -19z"/>
<path d="M6640 7583 c-42 -7 -600 -346 -597 -363 2 -13 116 -15 940 -18 888
-2 937 -1 936 15 -1 20 -306 300 -360 332 -32 18 -61 20 -404 26 -203 3 -397
8 -430 9 -33 2 -71 1 -85 -1z"/>
<path d="M7842 7548 c-6 -6 -12 -17 -12 -23 0 -13 308 -292 343 -312 27 -15
2052 -19 2062 -4 3 5 2 12 -3 15 -9 5 -253 58 -1012 220 l-445 94 -325 7
c-179 3 -386 8 -460 11 -100 4 -138 2 -148 -8z"/>
<path d="M9876 1359 c-17 -13 -26 -30 -26 -49 0 -31 39 -70 71 -70 54 0 81 93
37 124 -30 21 -50 20 -82 -5z"/>
<path d="M10096 1364 c-22 -21 -20 -40 6 -58 15 -11 26 -12 40 -5 24 13 23 55
-1 69 -25 13 -27 13 -45 -6z"/>
<path d="M7077 1262 c-24 -27 -22 -97 3 -122 24 -24 38 -25 66 -5 37 26 38
114 1 137 -21 13 -53 9 -70 -10z"/>
<path d="M8799 1263 c-8 -9 -14 -36 -14 -60 0 -35 5 -49 24 -64 29 -24 32 -24
65 2 50 39 26 139 -33 139 -16 0 -35 -7 -42 -17z"/>
<path d="M9196 1258 c-19 -27 -21 -88 -3 -110 20 -27 52 -30 78 -9 19 15 24
29 24 64 0 24 -6 51 -14 60 -20 25 -67 21 -85 -5z"/>
<path d="M7366 1274 c-31 -30 -20 -44 34 -44 37 0 50 4 50 14 0 20 -28 46 -50
46 -10 0 -26 -7 -34 -16z"/>
<path d="M7976 1258 c-36 -51 -9 -128 44 -128 35 0 60 31 60 75 0 44 -25 75
-60 75 -18 0 -34 -8 -44 -22z"/>
<path d="M8540 1270 c-32 -32 -24 -40 35 -40 30 0 55 5 55 10 0 15 -38 50 -55
50 -8 0 -24 -9 -35 -20z"/>
<path d="M10804 1282 c-6 -4 -16 -17 -23 -29 -11 -23 -11 -23 44 -23 41 0 55
4 55 14 0 33 -48 57 -76 38z"/>
<path d="M11074 1282 c-6 -4 -16 -17 -23 -29 -11 -23 -11 -23 44 -23 41 0 55
4 55 14 0 33 -48 57 -76 38z"/>
<path d="M11342 1271 c-34 -21 -30 -112 5 -138 24 -18 40 -16 63 7 25 25 28
101 4 124 -17 17 -51 21 -72 7z"/>
<path d="M12376 1258 c-19 -26 -21 -71 -5 -101 23 -42 57 -49 89 -17 25 25 28
101 4 124 -23 24 -70 20 -88 -6z"/>
</g>
</svg>
